<svg width="215" height="74" viewBox="0 0 215 74" fill="none" xmlns="http://www.w3.org/2000/svg">
<g filter="url(#filter0_d_126_141)">
<rect x="4" y="0.209473" width="207" height="65" rx="32.5" fill="url(#paint0_linear_126_141)"/>
</g>
<path d="M53 40.2095L51.2 35.4845H43.775L42 40.2095H39.4L46.4 22.7095H48.65L55.675 40.2095H53ZM44.55 33.4345H50.425L47.5 25.6345L44.55 33.4345ZM63.5664 40.5845C59.2164 40.5845 56.9414 37.9095 56.9414 33.6845C56.9414 29.6095 59.5164 26.6845 63.8914 26.6845C65.1914 26.6845 66.1414 26.8595 67.0414 27.2595V29.3595C66.1664 28.9845 65.1664 28.7345 63.8164 28.7345C60.9664 28.7345 59.3164 30.6845 59.3164 33.6345C59.3164 36.5345 60.7664 38.5345 63.6914 38.5345C64.8664 38.5345 66.0414 38.2845 67.0914 37.7845V39.8845C66.3164 40.2595 64.9164 40.5845 63.5664 40.5845ZM75.6953 40.5845C71.3453 40.5845 69.0703 37.9095 69.0703 33.6845C69.0703 29.6095 71.6453 26.6845 76.0203 26.6845C77.3203 26.6845 78.2703 26.8595 79.1703 27.2595V29.3595C78.2953 28.9845 77.2953 28.7345 75.9453 28.7345C73.0953 28.7345 71.4453 30.6845 71.4453 33.6345C71.4453 36.5345 72.8953 38.5345 75.8203 38.5345C76.9953 38.5345 78.1703 38.2845 79.2203 37.7845V39.8845C78.4453 40.2595 77.0453 40.5845 75.6953 40.5845ZM87.4742 26.6845C91.1242 26.6845 93.1492 28.9095 93.1492 33.1845V34.4345H83.6242C83.8742 37.0345 85.3992 38.4845 88.2992 38.4845C89.8242 38.4845 91.0242 38.2595 92.4492 37.6345V39.8095C90.9992 40.3345 89.7992 40.5845 87.9242 40.5845C83.5492 40.5845 81.2242 38.0095 81.2242 33.6845C81.2242 29.5095 83.5992 26.6845 87.4742 26.6845ZM87.4242 28.7345C85.4242 28.7345 83.9742 30.0345 83.6492 32.4845H90.7992C90.6742 29.8845 89.4992 28.7345 87.4242 28.7345ZM105.258 21.4595H107.608V40.2095H105.583L105.408 38.6845C104.383 39.8845 102.783 40.5845 100.983 40.5845C97.4332 40.5845 95.4582 38.3595 95.4582 33.8095C95.4582 29.4095 97.9332 26.6845 101.983 26.6845C103.333 26.6845 104.258 26.8095 105.258 27.1345V21.4595ZM101.383 38.5345C102.908 38.5345 104.183 37.9095 105.258 36.6095V29.2345C104.308 28.9095 103.258 28.7345 102.058 28.7345C99.3832 28.7345 97.8332 30.4345 97.8332 33.6845C97.8332 36.8595 99.0582 38.5345 101.383 38.5345ZM117.005 26.6845C120.655 26.6845 122.68 28.9095 122.68 33.1845V34.4345H113.155C113.405 37.0345 114.93 38.4845 117.83 38.4845C119.355 38.4845 120.555 38.2595 121.98 37.6345V39.8095C120.53 40.3345 119.33 40.5845 117.455 40.5845C113.08 40.5845 110.755 38.0095 110.755 33.6845C110.755 29.5095 113.13 26.6845 117.005 26.6845ZM116.955 28.7345C114.955 28.7345 113.505 30.0345 113.18 32.4845H120.33C120.205 29.8845 119.03 28.7345 116.955 28.7345ZM132.139 26.6845C132.514 26.6845 132.964 26.7345 133.289 26.8345V29.1095C132.839 28.9595 132.414 28.9095 131.889 28.9095C130.339 28.9095 129.089 29.7345 128.164 31.1595V40.2095H125.814V27.0845H127.839L128.089 28.7345C129.189 27.2845 130.689 26.6845 132.139 26.6845Z" fill="white"/>
<path fill-rule="evenodd" clip-rule="evenodd" d="M159.579 19.3739C160.162 19.1993 160.777 19.1631 161.375 19.2684C161.974 19.3737 162.54 19.6175 163.028 19.9804C163.516 20.3432 163.912 20.8151 164.185 21.3582C164.458 21.9014 164.6 22.5009 164.6 23.1088V42.12C164.6 42.728 164.458 43.3274 164.185 43.8706C163.912 44.4138 163.516 44.8857 163.028 45.2485C162.54 45.6114 161.974 45.8552 161.375 45.9605C160.777 46.0657 160.162 46.0296 159.579 45.8549L151.779 43.5149C150.976 43.274 150.272 42.7805 149.771 42.1077C149.271 41.4349 149 40.6187 149 39.78V25.4488C149 24.6102 149.271 23.7939 149.771 23.1212C150.272 22.4484 150.976 21.9549 151.779 21.7139L159.579 19.3739ZM165.9 22.2144C165.9 21.8697 166.037 21.539 166.281 21.2952C166.525 21.0514 166.855 20.9144 167.2 20.9144H171.1C172.134 20.9144 173.126 21.3253 173.858 22.0567C174.589 22.7881 175 23.7801 175 24.8144V26.1144C175 26.4592 174.863 26.7899 174.619 27.0337C174.375 27.2775 174.045 27.4144 173.7 27.4144C173.355 27.4144 173.025 27.2775 172.781 27.0337C172.537 26.7899 172.4 26.4592 172.4 26.1144V24.8144C172.4 24.4697 172.263 24.139 172.019 23.8952C171.775 23.6514 171.445 23.5144 171.1 23.5144H167.2C166.855 23.5144 166.525 23.3775 166.281 23.1337C166.037 22.8899 165.9 22.5592 165.9 22.2144ZM173.7 37.8144C174.045 37.8144 174.375 37.9514 174.619 38.1952C174.863 38.439 175 38.7697 175 39.1144V40.4144C175 41.4488 174.589 42.4408 173.858 43.1721C173.126 43.9035 172.134 44.3144 171.1 44.3144H167.2C166.855 44.3144 166.525 44.1775 166.281 43.9337C166.037 43.6899 165.9 43.3592 165.9 43.0144C165.9 42.6697 166.037 42.339 166.281 42.0952C166.525 41.8514 166.855 41.7144 167.2 41.7144H171.1C171.445 41.7144 171.775 41.5775 172.019 41.3337C172.263 41.0899 172.4 40.7592 172.4 40.4144V39.1144C172.4 38.7697 172.537 38.439 172.781 38.1952C173.025 37.9514 173.355 37.8144 173.7 37.8144ZM158.1 31.3144C157.755 31.3144 157.425 31.4514 157.181 31.6952C156.937 31.939 156.8 32.2697 156.8 32.6144C156.8 32.9592 156.937 33.2899 157.181 33.5337C157.425 33.7775 157.755 33.9144 158.1 33.9144H158.101C158.446 33.9144 158.777 33.7775 159.021 33.5337C159.264 33.2899 159.401 32.9592 159.401 32.6144C159.401 32.2697 159.264 31.939 159.021 31.6952C158.777 31.4514 158.446 31.3144 158.101 31.3144H158.1Z" fill="white"/>
<path d="M167.2 32.6145H173.7M173.7 32.6145L171.1 30.0145M173.7 32.6145L171.1 35.2145" stroke="white" stroke-width="2" stroke-linecap="round" stroke-linejoin="round"/>
<defs>
<filter id="filter0_d_126_141" x="0" y="0.209473" width="215" height="73" filterUnits="userSpaceOnUse" color-interpolation-filters="sRGB">
<feFlood flood-opacity="0" result="BackgroundImageFix"/>
<feColorMatrix in="SourceAlpha" type="matrix" values="0 0 0 0 0 0 0 0 0 0 0 0 0 0 0 0 0 0 127 0" result="hardAlpha"/>
<feOffset dy="4"/>
<feGaussianBlur stdDeviation="2"/>
<feComposite in2="hardAlpha" operator="out"/>
<feColorMatrix type="matrix" values="0 0 0 0 0 0 0 0 0 0 0 0 0 0 0 0 0 0 0.25 0"/>
<feBlend mode="normal" in2="BackgroundImageFix" result="effect1_dropShadow_126_141"/>
<feBlend mode="normal" in="SourceGraphic" in2="effect1_dropShadow_126_141" result="shape"/>
</filter>
<linearGradient id="paint0_linear_126_141" x1="4" y1="32.7095" x2="211" y2="32.7095" gradientUnits="userSpaceOnUse">
<stop stop-color="#006AD7"/>
<stop offset="1" stop-color="#2045A0"/>
</linearGradient>
</defs>
</svg>
